<svg xmlns="http://www.w3.org/2000/svg" width="395.403" height="21.938" viewBox="0 0 395.403 21.938">
  <path id="Path_1" data-name="Path 1" d="M3.91-2.742a9.854,9.854,0,0,1-3.2-7.414,9.854,9.854,0,0,1,3.2-7.414,10.727,10.727,0,0,1,7.668-3.047,11.3,11.3,0,0,1,4.545.914,11.7,11.7,0,0,1,3.809,2.844l-.965.965a9.117,9.117,0,0,0-3.123-3.148,8.488,8.488,0,0,0-4.266-1.066A8.123,8.123,0,0,0,5.23-17.316a10.36,10.36,0,0,0-2.488,7.16A10.36,10.36,0,0,0,5.23-3,8.123,8.123,0,0,0,11.578-.2a8.246,8.246,0,0,0,4.266-1.092,8.625,8.625,0,0,0,3.123-3.123l.965.965A10.939,10.939,0,0,1,16.123-.635,10.81,10.81,0,0,1,11.578.3,10.727,10.727,0,0,1,3.91-2.742ZM30.276-18.281,26.416-8.836h7.719ZM26.188-8.328,22.786,0h-.559l8.734-21.328L39.7,0h-1.93l-3.4-8.328ZM45.647-.508h7.922V0h-9.75V-20.312h1.828Zm14.381,0H67.95V0H58.2V-20.312h1.828ZM79.107-18.281,75.248-8.836h7.719ZM75.019-8.328,71.617,0h-.559l8.734-21.328L88.527,0H86.6l-3.4-8.328Zm28.762-8.607L101.954,0h-.609l2.539-20.922L113.2-2.184l8.836-18.738L124.7,0h-1.828l-2.133-16.834L112.516.609Zm32.079-1.346L132-8.836h7.719Zm-4.088,9.953L128.37,0h-.559l8.734-21.328L145.28,0h-1.93l-3.4-8.328Zm19-1.016,6.348-10.969h.711l-6.7,11.578V0H149.3V-8.506l-7.008-11.807h2.133ZM163.785-19.8v8.43h5.484v.508h-5.484V-.508h6.7V0h-8.531V-20.312h8.531v.508Zm15.955-.3a4.187,4.187,0,0,0-2.945.939,3.069,3.069,0,0,0-1.066,2.412,3.138,3.138,0,0,0,1.016,2.412,18.361,18.361,0,0,0,4.189,2.564,13.105,13.105,0,0,1,4.316,3.047,5.4,5.4,0,0,1,1.143,3.453A5.223,5.223,0,0,1,184.641-1.4a6.372,6.372,0,0,1-4.6,1.7,7.687,7.687,0,0,1-4.316-1.168,7.73,7.73,0,0,1-2.641-2.59L174.1-4.977a6.144,6.144,0,0,0,2.158,3.453A5.967,5.967,0,0,0,180.146-.2a4.9,4.9,0,0,0,3.5-1.244,4.354,4.354,0,0,0,1.32-3.326,4.213,4.213,0,0,0-1.117-3,16.455,16.455,0,0,0-4.291-2.768,14.952,14.952,0,0,1-4.215-2.793,4.018,4.018,0,0,1-1.041-2.717,4.222,4.222,0,0,1,1.473-3.275,5.631,5.631,0,0,1,3.859-1.295,7.544,7.544,0,0,1,3.3.813,7,7,0,0,1,2.539,2.336l-1.016,1.523a5.91,5.91,0,0,0-1.854-3.123A4.649,4.649,0,0,0,179.74-20.109ZM202.1-2.742a9.854,9.854,0,0,1-3.2-7.414,9.854,9.854,0,0,1,3.2-7.414,10.727,10.727,0,0,1,7.668-3.047,11.3,11.3,0,0,1,4.545.914,11.7,11.7,0,0,1,3.809,2.844l-.965.965a9.117,9.117,0,0,0-3.123-3.148,8.488,8.488,0,0,0-4.266-1.066,8.123,8.123,0,0,0-6.348,2.793,10.36,10.36,0,0,0-2.488,7.16A10.36,10.36,0,0,0,203.425-3,8.123,8.123,0,0,0,209.772-.2a8.246,8.246,0,0,0,4.266-1.092,8.625,8.625,0,0,0,3.123-3.123l.965.965a10.939,10.939,0,0,1-3.809,2.818A10.81,10.81,0,0,1,209.772.3,10.727,10.727,0,0,1,202.1-2.742Zm23.5-14.574a10.494,10.494,0,0,0-2.437,7.16A10.494,10.494,0,0,0,225.6-3,7.862,7.862,0,0,0,231.8-.2,7.862,7.862,0,0,0,237.991-3a10.494,10.494,0,0,0,2.438-7.16,10.494,10.494,0,0,0-2.437-7.16,7.862,7.862,0,0,0-6.2-2.793A7.862,7.862,0,0,0,225.6-17.316ZM224.23-2.742a10.008,10.008,0,0,1-3.1-7.414,10.008,10.008,0,0,1,3.1-7.414,10.381,10.381,0,0,1,7.566-3.047,10.381,10.381,0,0,1,7.566,3.047,10.008,10.008,0,0,1,3.1,7.414,10.008,10.008,0,0,1-3.1,7.414A10.381,10.381,0,0,1,231.8.3,10.381,10.381,0,0,1,224.23-2.742Zm37.588-17.57V-6.6a6.938,6.938,0,0,1-1.8,5.129A6.485,6.485,0,0,1,255.216.3q-4.266,0-6.348-1.777A6.371,6.371,0,0,1,246.787-6.6V-20.312h1.828V-6.6a6.386,6.386,0,0,0,1.676,4.723A6.573,6.573,0,0,0,255.216-.2a5.8,5.8,0,0,0,4.443-1.7,6.585,6.585,0,0,0,1.6-4.7V-20.312Zm21.745,0h.559V.609L267.008-17.672V0h-.559V-20.922L283.563-2.641Zm11.334.2a4.187,4.187,0,0,0-2.945.939,3.069,3.069,0,0,0-1.066,2.412,3.138,3.138,0,0,0,1.016,2.412,18.361,18.361,0,0,0,4.189,2.564,13.106,13.106,0,0,1,4.316,3.047,5.4,5.4,0,0,1,1.143,3.453A5.223,5.223,0,0,1,299.8-1.4,6.372,6.372,0,0,1,295.2.3a7.687,7.687,0,0,1-4.316-1.168,7.73,7.73,0,0,1-2.641-2.59l1.016-1.523a6.144,6.144,0,0,0,2.158,3.453A5.967,5.967,0,0,0,295.3-.2a4.9,4.9,0,0,0,3.5-1.244,4.354,4.354,0,0,0,1.32-3.326,4.213,4.213,0,0,0-1.117-3,16.454,16.454,0,0,0-4.291-2.768A14.952,14.952,0,0,1,290.5-13.33a4.018,4.018,0,0,1-1.041-2.717,4.222,4.222,0,0,1,1.473-3.275,5.631,5.631,0,0,1,3.859-1.295,7.544,7.544,0,0,1,3.3.813,7,7,0,0,1,2.539,2.336l-1.016,1.523a5.91,5.91,0,0,0-1.854-3.123A4.649,4.649,0,0,0,294.9-20.109Zm12.6.3v8.43h5.484v.508H307.5V-.508h6.7V0h-8.531V-20.312H314.2v.508Zm13.162,19.3h7.922V0h-9.75V-20.312h1.828Zm14.381,0h7.922V0h-9.75V-20.312h1.828ZM349.426,0H347.6V-20.312h1.828ZM371.17-20.312h.559V.609L354.616-17.672V0h-.559V-20.922L371.17-2.641Zm9.354,3a10.494,10.494,0,0,0-2.437,7.16A10.494,10.494,0,0,0,380.524-3a8.083,8.083,0,0,0,6.4,2.793,8.156,8.156,0,0,0,4.494-1.219,8.469,8.469,0,0,0,2.92-3.072V-9.648h-6.779v-.508h8.557V-4.52a11.491,11.491,0,0,1-4.088,3.631A11.054,11.054,0,0,1,386.923.3a10.631,10.631,0,0,1-7.77-3.047,10.008,10.008,0,0,1-3.1-7.414,10.008,10.008,0,0,1,3.1-7.414,10.631,10.631,0,0,1,7.77-3.047,11.3,11.3,0,0,1,4.545.914,11.7,11.7,0,0,1,3.809,2.844l-1.016,1.523a8.424,8.424,0,0,0-3.174-3.605,7.987,7.987,0,0,0-4.164-1.168A8.083,8.083,0,0,0,380.524-17.316Z" transform="translate(-0.711 21.328)" fill="#392435"/>
</svg>
