<svg xmlns="http://www.w3.org/2000/svg" width="509" height="77.453" viewBox="0 0 509 77.453">
  <g id="Group_7" data-name="Group 7" transform="translate(-429 -4112.547)">
    <path id="Path_2" data-name="Path 2" d="M6.316-4.43A15.917,15.917,0,0,1,1.148-16.406,15.917,15.917,0,0,1,6.316-28.383,17.328,17.328,0,0,1,18.7-33.3a18.249,18.249,0,0,1,7.342,1.477A18.893,18.893,0,0,1,32.2-27.234l-1.559,1.559a14.728,14.728,0,0,0-5.045-5.086A13.712,13.712,0,0,0,18.7-32.484,13.122,13.122,0,0,0,8.449-27.973,16.736,16.736,0,0,0,4.43-16.406,16.736,16.736,0,0,0,8.449-4.84,13.122,13.122,0,0,0,18.7-.328a13.32,13.32,0,0,0,6.891-1.764,13.933,13.933,0,0,0,5.045-5.045L32.2-5.578a17.67,17.67,0,0,1-6.152,4.553A17.462,17.462,0,0,1,18.7.492,17.328,17.328,0,0,1,6.316-4.43Zm42.591-25.1L42.673-14.273H55.141ZM42.3-13.453,36.807,0h-.9L50.014-34.453,64.124,0H61.007l-5.5-13.453ZM73.738-.82h12.8V0H70.785V-32.812h2.953Zm23.231,0h12.8V0H94.016V-32.812h2.953Zm30.819-28.711-6.234,15.258h12.469Zm-6.6,16.078L115.689,0h-.9L128.9-34.453,143.005,0h-3.117l-5.5-13.453Zm46.462-13.9L164.694,0h-.984l4.1-33.8,15.053,30.27L197.137-33.8,201.444,0h-2.953l-3.445-27.193L181.757.984Zm51.819-2.174-6.234,15.258H225.7Zm-6.6,16.078L207.367,0h-.9l14.109-34.453L234.683,0h-3.117l-5.5-13.453Zm30.7-1.641,10.254-17.719h1.148l-10.828,18.7V0H241.18V-13.74L229.86-32.812h3.445Zm21.016-16.9v13.617h8.859v.82h-8.859V-.82H275.4V0H261.622V-32.812H275.4v.82Zm25.774-.492a6.764,6.764,0,0,0-4.758,1.518,4.957,4.957,0,0,0-1.723,3.9,5.07,5.07,0,0,0,1.641,3.9,29.66,29.66,0,0,0,6.768,4.143q5.127,2.584,6.973,4.922A8.729,8.729,0,0,1,301.1-8.531a8.437,8.437,0,0,1-2.83,6.275A10.293,10.293,0,0,1,290.842.492a12.417,12.417,0,0,1-6.973-1.887A12.487,12.487,0,0,1,279.6-5.578l1.641-2.461a9.924,9.924,0,0,0,3.486,5.578,9.639,9.639,0,0,0,6.275,2.133,7.916,7.916,0,0,0,5.66-2.01A7.033,7.033,0,0,0,298.8-7.711a6.805,6.805,0,0,0-1.8-4.84q-1.723-1.846-6.932-4.471-5.168-2.625-6.809-4.512a6.491,6.491,0,0,1-1.682-4.389,6.82,6.82,0,0,1,2.379-5.291,9.1,9.1,0,0,1,6.234-2.092,12.187,12.187,0,0,1,5.332,1.313,11.3,11.3,0,0,1,4.1,3.773l-1.641,2.461a9.548,9.548,0,0,0-2.994-5.045A7.509,7.509,0,0,0,290.35-32.484Z" transform="translate(532 4147)" fill="#faf6ed"/>
    <text id="Integrative_Psychotherapeutic_counselling" data-name="Integrative Psychotherapeutic counselling" transform="translate(429 4172)" fill="#faf6ed" font-size="12" font-family="Roboto-Thin, Roboto" font-weight="200" letter-spacing="0.2em"><tspan x="66.842" y="11">INTEGRATIVE PSYCHOTHERAPEUTIC COUNSELLING</tspan></text>
    <line id="Line_7" data-name="Line 7" x2="477" transform="translate(444.5 4161.5)" fill="none" stroke="#faf6ed" stroke-width="0.5"/>
  </g>
</svg>
